<svg width="116px" height="116px" viewBox="0 0 116 116" version="1.1" xmlns:xlink="http://www.w3.org/1999/xlink" xmlns="http://www.w3.org/2000/svg">
<path d="M49.6208 12.7075L28.0148 0L6.38051 12.7075L28.0148 25.428L49.6208 12.7075ZM11.1411 42.4621L22.5998 49.1929L27.372 52.0044L27.372 26.562L5.73642 13.8415L5.73642 39.2708L11.1411 42.4608L11.1411 42.4621ZM44.8576 42.4634L28.6576 52.0044L28.6576 26.562L50.2636 13.8415L50.2636 39.2708L44.8602 42.4608L44.8576 42.4634ZM11.4613 44.1618L21.6356 50.1384L21.6356 89.0582L11.4613 83.0685L11.4613 44.1618ZM44.5401 44.1618L44.5388 44.1625L44.5388 44.1618L44.5401 44.1618ZM44.5388 44.1625L44.5388 76.3363L33.4002 82.8787C33.3989 82.8787 33.3989 82.8799 33.3977 82.8812L22.9199 89.0582L22.9199 50.894L27.6908 53.7055L27.6934 53.7055C27.7024 53.7107 27.7152 53.7107 27.7255 53.7159C27.813 53.7605 27.9068 53.7919 28.0109 53.7919L28.0161 53.7919C28.1202 53.7919 28.2153 53.7605 28.3015 53.7159C28.3105 53.7107 28.3233 53.7107 28.3336 53.7055L28.3362 53.7055L44.5388 44.1625ZM0.642809 76.7135L10.1756 71.1036L10.1756 82.313L0.642809 76.7135ZM35.0085 83.447L45.1829 89.4366L55.3572 83.447L45.1829 77.4691L35.0085 83.447ZM10.1756 83.8254L0 77.8475L0 96.5473L10.1756 102.523L10.1756 83.8254ZM33.7229 96.1688L23.5627 90.1922L33.7229 84.2026L43.8972 90.1922L33.7229 96.1688ZM56 103.278L45.8257 109.268L45.8257 90.5707L56 84.581L56 103.278ZM21.6356 96.5473L11.4613 102.523L11.4613 84.581L21.6356 90.5707L21.6356 96.5473ZM22.9212 91.3263L22.9212 110.025L33.0801 116L33.0801 97.3029L22.9212 91.3263ZM44.5401 110.023L44.5401 91.3263L34.3657 97.3042L34.3657 116L44.5401 110.023Z" id="Group" fill="#000000" fill-rule="evenodd" stroke="none" clip-path="url(#clip_2)" transform="translate(30 0)"></path>
</svg>