<svg width="5609" height="5609" viewBox="0 0 5609 5609" fill="none" xmlns="http://www.w3.org/2000/svg">
<g filter="url(#filter0_f_1_2)">
<g filter="url(#filter1_d_1_2)">
<path d="M5121.64 289.144C5112.85 291.33 5077.02 300.074 4981.34 323.757C4971.2 326.307 4952.26 331.044 4939.08 334.323C4926.23 337.238 4891.75 345.618 4863.01 352.905C4834.27 360.192 4777.14 374.037 4736.23 384.238C4695.32 394.076 4652.72 404.642 4641.56 407.557C4630.41 410.471 4568.2 425.774 4502.95 441.805C4438.04 457.837 4337.63 482.612 4279.81 496.822C4047.89 554.024 3981.29 570.42 3962.02 575.156C3950.86 577.707 3908.26 588.273 3867.35 598.474C3801.43 614.87 3730.77 631.994 3583.36 668.429C3559.36 674.259 3523.52 683.003 3503.91 688.104C3484.3 692.84 3424.46 707.778 3370.37 720.895C3316.61 734.011 3263.2 747.128 3252.04 750.043C3233.44 754.779 3020.11 807.245 2895.36 837.85C2866.62 845.137 2820.31 856.432 2792.24 863.354C2708.74 884.122 2685.75 889.587 2646.87 899.06C2626.58 904.161 2586.01 913.999 2557.28 921.286C2528.54 928.208 2482.22 939.867 2454.16 946.79C2243.2 998.891 2231.36 1002.53 2171.86 1036.78C2041.7 1111.11 1917.96 1241.91 1859.13 1367.25C1852.71 1381.46 1832.42 1432.46 1813.83 1481.29C1795.57 1530.11 1771.91 1592.78 1761.09 1620.83C1750.61 1648.89 1735.06 1689.33 1726.94 1710.83C1718.83 1732.32 1712.07 1750.9 1712.07 1752C1712.07 1757.1 1715.78 1756 1943.65 1697.34C2003.16 1682.04 2073.82 1663.82 2100.86 1656.9C2127.91 1649.98 2174.9 1637.59 2205.67 1629.94C2236.43 1622.29 2292.56 1607.71 2330.76 1597.88C2368.96 1588.04 2423.06 1573.83 2450.78 1566.91C2711.78 1499.5 3300.38 1347.94 3424.46 1316.24C3587.76 1273.97 3816.3 1215.31 3933.28 1185.44C3971.48 1175.6 4025.58 1161.75 4053.3 1154.47C4151 1128.96 4360.28 1075.04 4421.81 1059.74C4530 1032.41 4869.77 944.239 4878.56 941.325C4890.06 936.953 4875.18 972.294 5031.04 582.443C5139.56 311.733 5147 292.787 5147 289.144C5147 285.136 5136.86 284.772 5121.64 289.144Z" fill="black"/>
</g>
<g filter="url(#filter2_d_1_2)">
<path d="M4438.66 1617.61C4415.7 1623.39 4367.11 1635.68 4330.51 1644.72C4293.9 1653.75 4237.66 1667.48 4205.71 1675.43C4173.76 1683.39 4131.83 1693.87 4112.53 1698.56C4093.23 1703.26 4040.98 1716.27 3996.05 1727.48C3951.13 1738.68 3892.22 1753.13 3864.6 1760C3837.31 1766.87 3755.45 1786.74 3683.23 1804.81C3611.02 1822.52 3482.23 1854.33 3397.03 1875.29C3311.84 1896.61 3226.65 1917.57 3207.34 1922.63C3188.04 1927.33 3063.91 1958.05 2931.13 1990.93C2798.35 2023.82 2660.57 2057.79 2624.96 2066.83C2589.36 2075.5 2522.8 2092.12 2476.87 2103.33C2431.28 2114.53 2355.41 2133.32 2308.82 2144.89C2262.22 2156.81 2210.64 2169.46 2194 2173.44C2151.07 2183.56 1789 2273.18 1739.75 2285.83C1716.78 2291.61 1656.88 2306.43 1606.63 2318.36C1482.5 2348.71 1490.82 2346.18 1485.5 2357.39C1482.83 2362.81 1456.54 2428.94 1426.93 2504.48C1397.31 2580.01 1344.39 2714.08 1309.78 2802.63C1214.61 3044.4 1212.61 3049.82 1150.71 3207.39C1119.1 3287.98 1077.83 3392.79 1059.19 3440.49C1040.56 3488.19 990.306 3615.77 947.709 3724.19C905.112 3832.6 857.191 3954.39 841.217 3995.23C800.95 4097.51 756.023 4212.07 604.937 4596.96C533.055 4779.82 471.489 4936.67 468.161 4945.34C461.505 4961.97 460.174 4971 464.5 4971C465.831 4971 482.471 4964.13 501.772 4956.18C521.074 4947.87 549.361 4935.94 565.002 4929.44C580.643 4923.3 699.782 4872.7 829.569 4817.77C959.69 4762.47 1083.15 4710.07 1104.12 4701.04C1125.09 4692.36 1163.69 4676.1 1189.65 4664.9L1236.9 4644.66L1277.5 4541.3C1299.8 4484.56 1344.73 4370.36 1377.01 4287.96C1409.29 4205.56 1459.54 4077.63 1488.49 4004.27C1517.11 3930.54 1573.35 3787.43 1613.29 3686.24C1653.22 3584.69 1709.46 3441.57 1738.08 3368.21C1790 3235.22 1805.97 3194.74 1821.28 3156.79C1825.61 3145.95 1848.24 3088.13 1871.53 3028.5C1894.83 2968.87 1914.79 2919 1915.79 2917.55C1918.12 2915.02 1981.02 2895.51 2471.88 2746.61C2679.21 2683.73 3003.68 2585.43 3057.59 2569.17C3093.2 2557.96 3148.77 2541.34 3180.72 2531.58C3252.6 2509.9 3360.43 2477.01 3448.62 2450.27C3485.22 2439.06 3563.1 2415.57 3621.67 2397.86C3680.24 2380.16 3782.07 2349.08 3847.96 2329.2C3984.07 2287.64 4195.39 2223.67 4231.67 2212.83C4254.3 2205.96 4256.3 2204.52 4262.62 2190.78C4266.61 2182.83 4271.6 2170.55 4273.93 2163.32C4276.26 2156.09 4281.25 2143.08 4284.91 2134.05C4288.58 2125.01 4313.87 2061.77 4340.49 1993.1C4367.45 1924.44 4411.71 1811.68 4439 1742.29C4466.28 1672.9 4488.58 1614 4488.58 1611.47C4488.58 1604.96 4487.58 1604.96 4438.66 1617.61Z" fill="black"/>
</g>
</g>
<defs>
<filter id="filter0_f_1_2" x="-27.9" y="-27.9" width="5664.8" height="5664.8" filterUnits="userSpaceOnUse" color-interpolation-filters="sRGB">
<feFlood flood-opacity="0" result="BackgroundImageFix"/>
<feBlend mode="normal" in="SourceGraphic" in2="BackgroundImageFix" result="shape"/>
<feGaussianBlur stdDeviation="13.95" result="effect1_foregroundBlur_1_2"/>
</filter>
<filter id="filter1_d_1_2" x="1462.07" y="36" width="3934.93" height="1967.92" filterUnits="userSpaceOnUse" color-interpolation-filters="sRGB">
<feFlood flood-opacity="0" result="BackgroundImageFix"/>
<feColorMatrix in="SourceAlpha" type="matrix" values="0 0 0 0 0 0 0 0 0 0 0 0 0 0 0 0 0 0 127 0" result="hardAlpha"/>
<feOffset/>
<feGaussianBlur stdDeviation="125"/>
<feComposite in2="hardAlpha" operator="out"/>
<feColorMatrix type="matrix" values="0 0 0 0 1 0 0 0 0 1 0 0 0 0 1 0 0 0 1 0"/>
<feBlend mode="normal" in2="BackgroundImageFix" result="effect1_dropShadow_1_2"/>
<feBlend mode="normal" in="SourceGraphic" in2="effect1_dropShadow_1_2" result="shape"/>
</filter>
<filter id="filter2_d_1_2" x="212" y="1357.17" width="4526.58" height="3863.83" filterUnits="userSpaceOnUse" color-interpolation-filters="sRGB">
<feFlood flood-opacity="0" result="BackgroundImageFix"/>
<feColorMatrix in="SourceAlpha" type="matrix" values="0 0 0 0 0 0 0 0 0 0 0 0 0 0 0 0 0 0 127 0" result="hardAlpha"/>
<feOffset/>
<feGaussianBlur stdDeviation="125"/>
<feComposite in2="hardAlpha" operator="out"/>
<feColorMatrix type="matrix" values="0 0 0 0 1 0 0 0 0 1 0 0 0 0 1 0 0 0 1 0"/>
<feBlend mode="normal" in2="BackgroundImageFix" result="effect1_dropShadow_1_2"/>
<feBlend mode="normal" in="SourceGraphic" in2="effect1_dropShadow_1_2" result="shape"/>
</filter>
</defs>
</svg>
