<svg width="5609" height="5609" viewBox="0 0 5609 5609" fill="none" xmlns="http://www.w3.org/2000/svg">
<g clip-path="url(#clip0_1_2)">
<path d="M5578.64 3.76392C5568.12 6.3811 5525.21 16.8501 5410.67 45.2034C5398.52 48.2568 5375.86 53.9275 5360.07 57.8533C5344.69 61.343 5303.4 71.3757 5269 80.0997C5234.59 88.8239 5166.19 105.4 5117.21 117.613C5068.24 129.391 5017.24 142.041 5003.88 145.531C4990.52 149.02 4916.05 167.341 4837.93 186.534C4760.21 205.727 4640 235.389 4570.78 252.401C4293.12 320.885 4213.38 340.514 4190.31 346.185C4176.95 349.238 4125.95 361.888 4076.97 374.102C3998.04 393.731 3913.45 414.233 3736.97 457.853C3708.23 464.833 3665.33 475.302 3641.85 481.408C3618.38 487.079 3546.73 504.964 3481.97 520.667C3417.61 536.37 3353.66 552.074 3340.3 555.563C3318.04 561.234 3062.64 624.048 2913.28 660.689C2878.88 669.413 2823.42 682.935 2789.83 691.223C2689.85 716.087 2662.33 722.63 2615.78 733.971C2591.49 740.078 2542.92 751.856 2508.52 760.58C2474.11 768.868 2418.66 782.826 2385.06 791.114C2132.49 853.491 2118.33 857.854 2047.09 898.857C1891.25 987.843 1743.11 1144.44 1672.68 1294.49C1664.99 1311.51 1640.71 1372.58 1618.44 1431.03C1596.59 1489.48 1568.25 1564.51 1555.3 1598.09C1542.75 1631.68 1524.13 1680.1 1514.42 1705.84C1504.71 1731.57 1496.61 1753.82 1496.61 1755.13C1496.61 1761.23 1501.06 1759.93 1773.87 1689.7C1845.11 1671.38 1929.71 1649.57 1962.09 1641.28C1994.47 1632.99 2050.73 1618.16 2087.56 1609C2124.4 1599.84 2191.59 1582.39 2237.33 1570.61C2283.06 1558.84 2347.83 1541.82 2381.02 1533.54C2693.49 1452.84 3398.19 1271.38 3546.73 1233.43C3742.23 1182.83 4015.85 1112.6 4155.9 1076.83C4201.64 1065.05 4266.4 1048.48 4299.59 1039.75C4416.57 1009.22 4667.12 944.658 4740.78 926.338C4870.31 893.622 5277.09 788.061 5287.62 784.571C5301.38 779.337 5283.57 821.648 5470.17 354.909C5600.1 30.8086 5609 8.12598 5609 3.76392C5609 -1.0343 5596.86 -1.47058 5578.64 3.76392Z" fill="white"/>
<path d="M4760.96 1594.24C4733.47 1601.16 4675.3 1615.87 4631.47 1626.69C4587.65 1637.51 4520.31 1653.95 4482.06 1663.47C4443.82 1672.98 4393.62 1685.53 4370.51 1691.16C4347.4 1696.78 4284.85 1712.36 4231.06 1725.77C4177.27 1739.18 4106.75 1756.49 4073.68 1764.71C4041.01 1772.93 3943 1796.73 3856.54 1818.36C3770.08 1839.56 3615.89 1877.64 3513.9 1902.73C3411.9 1928.26 3309.9 1953.36 3286.8 1959.41C3263.69 1965.04 3115.08 2001.82 2956.1 2041.19C2797.13 2080.56 2632.19 2121.23 2589.56 2132.05C2546.92 2142.43 2467.24 2162.34 2412.26 2175.75C2357.67 2189.16 2266.83 2211.66 2211.05 2225.51C2155.27 2239.78 2093.52 2254.93 2073.6 2259.69C2022.2 2271.8 1588.72 2379.1 1529.75 2394.25C1502.26 2401.17 1430.54 2418.91 1370.38 2433.19C1221.77 2469.53 1231.73 2466.5 1225.36 2479.92C1222.17 2486.41 1190.69 2565.59 1155.23 2656.01C1119.77 2746.44 1056.42 2906.96 1014.99 3012.97C901.039 3302.43 898.648 3308.92 824.542 3497.56C786.691 3594.05 737.287 3719.52 714.975 3776.63C692.664 3833.75 632.502 3986.48 581.503 4116.28C530.505 4246.08 473.132 4391.89 454.008 4440.79C405.799 4563.23 352.012 4700.39 171.128 5161.18C85.0684 5380.12 11.3601 5567.9 7.3759 5578.28C-0.592557 5598.18 -2.18625 5609 2.99325 5609C4.58694 5609 24.5081 5600.78 47.6166 5591.26C70.7252 5581.31 104.591 5567.03 123.317 5559.24C142.043 5551.89 284.678 5491.31 440.063 5425.55C595.847 5359.35 743.662 5296.61 768.762 5285.79C793.863 5275.41 840.08 5255.94 871.157 5242.53L927.733 5218.3L976.341 5094.55C1003.04 5026.62 1056.82 4889.9 1095.47 4791.25C1134.12 4692.6 1194.28 4539.44 1228.94 4451.6C1263.21 4363.34 1330.54 4192 1378.35 4070.85C1426.16 3949.27 1493.49 3777.93 1527.76 3690.1C1589.91 3530.88 1609.04 3482.42 1627.36 3436.99C1632.54 3424.01 1659.64 3354.78 1687.53 3283.39C1715.42 3212 1739.32 3152.29 1740.52 3150.56C1743.31 3147.53 1818.61 3124.17 2406.28 2945.91C2654.5 2870.62 3042.96 2752.93 3107.51 2733.46C3150.14 2720.05 3216.67 2700.15 3254.92 2688.47C3340.98 2662.5 3470.07 2623.13 3575.65 2591.11C3619.48 2577.7 3712.71 2549.58 3782.83 2528.38C3852.96 2507.18 3974.87 2469.97 4053.76 2446.17C4216.72 2396.41 4469.71 2319.83 4513.14 2306.85C4540.23 2298.63 4542.63 2296.9 4550.2 2280.46C4554.98 2270.94 4560.95 2256.23 4563.74 2247.57C4566.53 2238.92 4572.51 2223.34 4576.89 2212.53C4581.27 2201.71 4611.55 2125.99 4643.43 2043.78C4675.7 1961.58 4728.69 1826.58 4761.36 1743.51C4794.03 1660.44 4820.72 1589.91 4820.72 1586.88C4820.72 1579.09 4819.53 1579.09 4760.96 1594.24Z" fill="white"/>
</g>
<defs>
<clipPath id="clip0_1_2">
<rect width="5609" height="5609" fill="white"/>
</clipPath>
</defs>
</svg>
