<svg data-name="Layer 1" xmlns="http://www.w3.org/2000/svg" viewBox="0 0 141.36 137.43"><defs><clipPath id="prefix__a"><path fill="none" d="M36.42 44.23h68.52v48.96H36.42z"/></clipPath></defs><g clip-path="url(#prefix__a)"><path d="M81.23 78.48a6.14 6.14 0 116.14-6.14 6.14 6.14 0 01-6.14 6.14m-21.23 0a6.14 6.14 0 116.14-6.14A6.14 6.14 0 0160 78.48M104.41 73c-.92-7.7-8.24-22.9-8.24-22.9A43 43 0 0088 45.59a17.88 17.88 0 00-8.38-1.27l-.13 1.06a23.52 23.52 0 015.8 1.95 87.59 87.59 0 018.17 4.87s-10.32-5.63-22.27-5.63a51.32 51.32 0 00-23.2 5.63 87.84 87.84 0 018.17-4.87 23.57 23.57 0 015.8-1.95l-.13-1.06a17.88 17.88 0 00-8.38 1.27 42.84 42.84 0 00-8.21 4.56S37.87 65.35 37 73s-.37 11.54-.37 11.54 4.22 5.68 9.9 7.14 7.7 1.47 7.7 1.47l3.75-4.68a21.22 21.22 0 01-4.65-2 24.47 24.47 0 01-5.4-4.47s13.23 6.4 22.75 6.4c10 0 22.75-6.44 22.75-6.44a24.56 24.56 0 01-5.35 4.56 21.22 21.22 0 01-4.65 2l3.75 4.68s2 0 7.7-1.47 9.89-7.14 9.89-7.14.55-3.85-.37-11.54"/></g></svg>